<?xml version="1.0" encoding="UTF-8"?>
<svg width="740px" height="196px" viewBox="0 0 740 196" version="1.1" xmlns="http://www.w3.org/2000/svg" xmlns:xlink="http://www.w3.org/1999/xlink">
    <!-- Generator: Sketch 54.1 (76490) - https://sketchapp.com -->
    <title>Logo</title>
    <desc>Created with Sketch.</desc>
    <defs>
        <filter x="-1.6%" y="-6.4%" width="103.3%" height="112.8%" filterUnits="objectBoundingBox" id="filter-1">
            <feOffset dx="0" dy="2" in="SourceAlpha" result="shadowOffsetOuter1"></feOffset>
            <feGaussianBlur stdDeviation="2" in="shadowOffsetOuter1" result="shadowBlurOuter1"></feGaussianBlur>
            <feColorMatrix values="0 0 0 0 0   0 0 0 0 0   0 0 0 0 0  0 0 0 0.5 0" type="matrix" in="shadowBlurOuter1" result="shadowMatrixOuter1"></feColorMatrix>
            <feMerge>
                <feMergeNode in="shadowMatrixOuter1"></feMergeNode>
                <feMergeNode in="SourceGraphic"></feMergeNode>
            </feMerge>
        </filter>
    </defs>
    <g id="Page-1" stroke="none" stroke-width="1" fill="none" fill-rule="evenodd">
        <g id="Artboard" transform="translate(-11.000000, -15.000000)">
            <g id="Logo" filter="url(#filter-1)" transform="translate(15.000000, 17.000000)">
                <path d="M20,3.5 C10.8873016,3.5 3.5,10.8873016 3.5,20 L3.5,168 C3.5,177.112698 10.8873016,184.5 20,184.5 L712,184.5 C721.112698,184.5 728.5,177.112698 728.5,168 L728.5,20 C728.5,10.8873016 721.112698,3.5 712,3.5 L20,3.5 Z" id="Background" stroke="#00B9FD" stroke-width="7"></path>
                <g id="Foreground" transform="translate(81.000000, 30.000000)">
                    <g id="Text" transform="translate(144.000000, 12.000000)">
                        <text id="Dev" fill="#00B9FD" font-family="Montserrat-SemiBold, Montserrat" font-size="80" font-weight="500" letter-spacing="-1.80000043">
                            <tspan x="4.04000064" y="78">Dev </tspan>
                        </text>
                        <text id="Cafe" fill="#00B9FD" font-family="Montserrat-Medium, Montserrat" font-size="82" font-weight="400" letter-spacing="-1.84500027">
                            <tspan x="175.178001" y="79">Cafe </tspan>
                        </text>
                        <path d="M361.5,88.5 L405,88.5" id="Cursor" stroke="#00B9FD" stroke-width="6" stroke-linecap="square">
                        	<animate attributeType="CSS" attributeName="display" from="inherit" to="none" dur="1.15s" repeatCount="indefinite" />
                        </path>
                    </g>
                    <g id="Coffee-Cup" stroke="#00B9FD">
                        <path d="M0,15.6177602 L0,107.472625 C7.51964707,119.696935 23.3238453,125.20606 47.4125946,124 C71.5013439,122.79394 84.9156859,116.228642 87.6556206,104.304107 C87.6556206,98.5090656 87.6556206,95.576595 87.6556206,95.5066954 C87.6556206,95.4855676 87.5983428,93.0877434 91.0940396,93.0877434 C93.9305501,93.0877434 98.3362597,92.0453215 102.564183,89.8704106 C111.847893,85.094723 122.036752,74.3892139 122.036752,52.7570911 C122.036752,13.8447748 87.6556206,29.655417 87.6556206,28.1095954 C87.6556206,27.0790477 87.6556206,24.7844721 87.6556206,21.2258687 C89.2152149,8.53006265 75.8008729,1.7881064 47.4125946,1 C19.0243163,0.211893596 3.22011811,5.08448035 0,15.6177602 Z" id="Path" stroke-width="7"></path>
                        <path d="M92.8688194,39.3416398 C92.8617228,39.3417668 92.8617228,39.3417668 92.8546264,39.3419059 C89.8176716,39.4027573 87.405062,41.9140259 87.4659113,44.95098 C87.7624497,59.7505368 87.9107665,70.3475699 87.9107665,76.7552055 C87.9107665,79.8736617 89.2596821,80.8952275 92.3364895,80.3927504 C96.392277,79.730395 101.277533,76.3242096 104.676481,71.3301098 C108.432217,65.8117783 109.474804,57.5052154 107.57953,46.3132405 C106.877787,42.1693071 103.252795,39.1603903 99.0505022,39.2337416 L92.8688175,39.3416399 Z" id="Rectangle" stroke-width="7" transform="translate(97.983911, 59.866098) rotate(1.000000) translate(-97.983911, -59.866098) "></path>
                        <g id="Coffee-Liquid" transform="translate(10.290751, 13.000000)" fill="#00B9FD">
                            <path d="M33.670393,14.5401405 C49.134366,14.5401405 62.4926459,12.092351 62.4926459,8.77864255 C62.4926459,5.46493405 49.1732223,2 33.7092493,2 C18.2452763,2 4.84814018,5.46493405 4.84814018,8.77864255 C4.84814018,12.092351 18.20642,14.5401405 33.670393,14.5401405 Z" id="Oval"></path>
                            <path d="M5.43429994,7.28865251 C2.17729037,5.58895446 1.79723133,4.05414217 4.29412283,2.68421565 C8.03946007,0.629325864 6.07801177,0.056268425 3.98966678,0.056268425 C1.9013218,0.056268425 0.488710592,2.88369778 0.236582739,3.5207328 C-0.015545114,4.15776782 -0.136437074,5.46885366 0.236582739,6.37875309 C0.609602552,7.28865251 5.21886211,9.93408141 5.81074461,10.3024761 C6.20533295,10.5480725 6.07985139,9.54346468 5.43429994,7.28865251 Z" id="Path-5"></path>
                            <path d="M66.1435492,7.23238409 C62.8865396,5.53268603 62.5064806,3.99787374 65.0033721,2.62794722 C68.7487093,0.573057439 66.787261,-1.15463195e-14 64.6989161,-1.15463195e-14 C62.6105711,-1.11529401e-14 61.1979599,2.82742936 60.945832,3.46446437 C60.6937042,4.10149939 60.5728122,5.41258524 60.945832,6.32248466 C61.3188518,7.23238409 65.7225426,9.97041966 66.3144251,10.3388143 C66.7090135,10.5844108 66.6520548,9.54893404 66.1435492,7.23238409 Z" id="Path-5" transform="translate(63.913014, 5.187064) scale(-1, 1) translate(-63.913014, -5.187064) "></path>
                        </g>
                    </g>
                    <g id="Heart" transform="translate(18.000000, 55.000000)" fill="#00B9FD">
                        <polygon id="Path-2" points="24 0 0 10.6311329 0 17.966055 24 29 24 21.7594808 8.02292823 14.5 24 6.94485882"></polygon>
                        <path d="M29.69348,4.61852778e-14 L49.6913889,4.61852778e-14 L49.6913889,5.16887329 L42.4549395,13.0486615 C48.3504773,13.6325394 51.2982462,17.2914888 51.2982462,24.0255096 C51.2982462,28.5894931 46.7225398,33.4116172 39.4911802,33.7037528 C37.8070155,33.7717904 34.8655093,33.3205518 32.4429681,32.5163775 C29.9197874,31.6787954 27.9429539,30.4815439 27.6841143,30.2777773 C27.1767589,29.8783716 30.729293,24.8246272 30.9300477,24.8246272 C31.0185821,24.8246272 32.925807,26.5029787 35.8775524,27.1778007 C39.6189945,28.0331615 44.5789212,27.5971563 44.5789212,23.6211319 C44.5789212,18.8792388 41.0427528,17.3625517 33.970416,19.0710706 L33.970416,13.829385 L40.4282489,5.93168807 L29.69348,5.93168807 L29.69348,4.61852778e-14 Z" id="Path-3"></path>
                    </g>
                </g>
            </g>
        </g>
    </g>
</svg>